# xmcd CD database file
#
# Track frame offsets:
#	150
#	15086
#	31152
#	50605
#	68056
#	82133
#	99776
#	116452
#	135427
#	152218
#	169833
#	189596
#	206090
#	223748
#	238003
#	254964
#
# Disc length: 3590 seconds
#
# Revision: 0
# Processed by: cddbd v1.5.2PL0 Copyright (c) Steve Scherf et al.
# Submitted via: CDex 1.51
#
DISCID=dc0e0410
DTITLE=Diana Krall - Wallflower
DYEAR=2015
DGENRE=Jazz
TTITLE0=Diana Krall - California Dreamin'
TTITLE1=Diana Krall - Desperado
TTITLE2=Diana Krall - Superstar
TTITLE3=Diana Krall - Alone Again (Naturally)
TTITLE4=Diana Krall - Wallflower
TTITLE5=Diana Krall - If I Take You Home Tonight
TTITLE6=Diana Krall - I Can't Tell You Why
TTITLE7=Diana Krall - Sorry Seems To Be The Hardest Word
TTITLE8=Diana Krall - Operator (That's Not The Way It Feels)
TTITLE9=Diana Krall - I'm Not In Love
TTITLE10=Diana Krall - Feels Like Home
TTITLE11=Diana Krall - Don't Dream It's Over
TTITLE12=Diana Krall - In My Life
TTITLE13=Diana Krall - Yeh Yeh
TTITLE14=Diana Krall - Sorry Seems To Be The Hardest Word (Live)
TTITLE15=Diana Krall - Wallflower (Live)
EXTD=YEAR: 2015
EXTT0=
EXTT1=
EXTT2=
EXTT3=
EXTT4=
EXTT5=
EXTT6=
EXTT7=
EXTT8=
EXTT9=
EXTT10=
EXTT11=
EXTT12=
EXTT13=
EXTT14=
EXTT15=
PLAYORDER=
